<svg xmlns="http://www.w3.org/2000/svg" viewBox="0 0 24 24" aria-hidden="true">
  <path fill="currentColor" d="M12.04 2C6.57 2 2.13 6.43 2.13 11.9c0 1.74.46 3.45 1.33 4.95L2 22l5.28-1.39a9.86 9.86 0 0 0 4.76 1.21h.01c5.46 0 9.91-4.43 9.91-9.9A9.92 9.92 0 0 0 12.04 2Zm5.83 14.17c-.24.68-1.41 1.31-1.95 1.36-.5.05-1.13.07-1.82-.11-.42-.11-.96-.31-1.66-.61-2.92-1.26-4.82-4.19-4.97-4.38-.15-.2-1.19-1.58-1.19-3.02 0-1.44.75-2.15 1.02-2.44.27-.3.59-.37.79-.37h.57c.18.01.43-.07.67.51.25.6.85 2.08.93 2.23.07.15.12.33.02.53-.1.2-.15.32-.3.49-.15.17-.32.38-.46.51-.15.15-.31.31-.13.61.17.3.76 1.25 1.63 2.02 1.12 1 2.06 1.31 2.36 1.46.3.15.47.13.65-.08.2-.22.75-.87.95-1.17.2-.3.4-.25.67-.15.27.1 1.73.82 2.03.97.3.15.5.22.57.35.07.13.07.75-.17 1.43Z" />
</svg>
